<!-- icon666.com - MILLIONS vector ICONS FREE --><svg fill="none" viewBox="0 0 24 24" xmlns="http://www.w3.org/2000/svg"><path clip-rule="evenodd" d="m6.29289 8.29289c-.39052.39053-.39052 1.02369 0 1.41422.39053.39049 1.02369.39049 1.41422 0l4.29289-4.2929 4.2929 4.2929c.3905.39049 1.0237.39049 1.4142 0 .3905-.39053.3905-1.02369 0-1.41422l-5-5c-.1875-.18753-.4419-.29289-.7071-.29289s-.5196.10536-.7071.29289zm11.41421 7.41421c.3905-.3905.3905-1.0237 0-1.4142s-1.0237-.3905-1.4142 0l-4.2929 4.2929-4.29289-4.2929c-.39053-.3905-1.02369-.3905-1.41422 0-.39052.3905-.39052 1.0237 0 1.4142l5.00001 5c.3905.3905 1.0237.3905 1.4142 0z" fill="#000" fill-rule="evenodd" style="fill: rgb(202, 205, 216);"></path></svg>